<?xml version="1.0" standalone="no"?>
<!DOCTYPE svg PUBLIC "-//W3C//DTD SVG 20010904//EN"
 "http://www.w3.org/TR/2001/REC-SVG-20010904/DTD/svg10.dtd">
<svg version="1.0" xmlns="http://www.w3.org/2000/svg"
 width="500.000000pt" height="500.000000pt" viewBox="0 0 500.000000 500.000000"
 preserveAspectRatio="xMidYMid meet">

<g transform="translate(0.000000,500.000000) scale(0.100000,-0.100000)"
fill="#000000" stroke="none">
<path d="M0 2500 l0 -2500 2500 0 2500 0 0 2500 0 2500 -2500 0 -2500 0 0
-2500z m2910 2342 c483 -89 923 -319 1266 -660 369 -368 605 -842 679 -1367
19 -133 19 -497 0 -630 -62 -439 -237 -844 -511 -1181 -358 -442 -866 -741
-1437 -846 -108 -20 -154 -23 -407 -23 -253 0 -299 3 -407 23 -879 162 -1592
784 -1856 1620 -80 250 -107 434 -107 722 0 288 27 472 107 722 243 768 878
1370 1663 1577 98 25 205 46 345 65 17 2 147 3 290 1 214 -2 280 -6 375 -23z"/>
<path d="M2355 4494 c-16 -2 -73 -9 -125 -15 -180 -21 -444 -101 -615 -187
-622 -312 -1035 -910 -1105 -1601 -77 -772 317 -1534 995 -1925 340 -195 754
-289 1139 -258 247 20 449 70 661 164 862 379 1344 1318 1150 2238 -93 437
-330 834 -670 1118 -313 262 -702 425 -1105 461 -109 10 -259 12 -325 5z
m1176 -318 c124 -83 138 -259 27 -362 -65 -62 -106 -74 -445 -134 -178 -31
-325 -59 -329 -62 -3 -3 -102 -590 -220 -1303 -117 -713 -218 -1314 -224
-1335 -24 -90 -120 -185 -213 -211 -55 -16 -135 -15 -194 2 -33 9 -63 28 -99
63 -44 43 -54 60 -65 108 -12 56 -7 87 115 835 70 428 161 985 202 1238 40
253 75 469 77 480 3 20 -6 19 -267 -28 -325 -57 -377 -60 -440 -23 -90 53
-132 157 -102 258 13 45 27 66 71 106 35 32 74 57 107 68 93 31 1846 334 1907
329 35 -2 66 -12 92 -29z"/>
</g>
</svg>
