<?xml version="1.0" standalone="no"?>
<!DOCTYPE svg PUBLIC "-//W3C//DTD SVG 20010904//EN"
 "http://www.w3.org/TR/2001/REC-SVG-20010904/DTD/svg10.dtd">
<svg version="1.0" xmlns="http://www.w3.org/2000/svg"
 width="500.000000pt" height="500.000000pt" viewBox="0 0 500.000000 500.000000"
 preserveAspectRatio="xMidYMid meet">

<g transform="translate(0.000000,500.000000) scale(0.100000,-0.100000)"
fill="#A0A0A0" stroke="none">
<path d="M490 4258 c0 -2 -1 -825 -3 -1831 l-2 -1827 171 0 171 0 6 242 c9
312 9 3089 0 3276 l-6 142 -169 0 c-92 0 -168 -1 -168 -2z"/>
<path d="M1140 2430 l0 -1830 175 0 175 0 0 1133 0 1132 53 -55 c28 -30 151
-163 272 -295 121 -132 261 -282 310 -335 50 -52 158 -169 240 -260 83 -90
224 -245 315 -344 91 -99 187 -205 215 -236 27 -30 108 -118 180 -195 71 -77
179 -194 239 -260 60 -66 145 -157 189 -202 l79 -83 224 0 224 0 0 1830 0
1830 -175 0 -175 0 0 -1077 -1 -1078 -116 120 c-64 66 -184 194 -267 285 -83
91 -231 253 -331 360 -99 107 -200 218 -226 245 -25 28 -117 127 -205 220 -88
94 -221 236 -295 316 -74 80 -231 250 -349 377 l-215 232 -267 0 -268 0 0
-1830z m641 1167 c156 -166 338 -361 404 -432 65 -72 155 -168 200 -215 44
-47 224 -240 400 -430 176 -189 388 -417 470 -505 204 -218 365 -393 398 -433
l27 -34 0 -251 -1 -252 -41 45 c-22 25 -154 167 -293 315 -138 149 -292 315
-340 370 -49 55 -117 129 -150 165 -34 36 -99 106 -146 155 -153 164 -422 456
-675 735 -138 151 -316 346 -397 434 l-147 159 0 238 c0 132 2 239 4 239 2 0
131 -136 287 -303z"/>
<path d="M4330 2461 c0 -989 3 -1813 6 -1830 l7 -31 168 0 168 0 -2 1830 -2
1830 -172 0 -173 0 0 -1799z"/>
</g>
</svg>
